<svg width="179" height="45" viewBox="0 0 179 45" fill="none" xmlns="http://www.w3.org/2000/svg">
<path d="M11.3906 29H2.71875V6.59375H11.3906C14.9323 6.59375 17.7188 7.59375 19.75 9.59375C21.7708 11.6146 22.7812 14.349 22.7812 17.7969C22.7812 21.2552 21.7708 23.9844 19.75 25.9844C17.7292 27.9948 14.9427 29 11.3906 29ZM6.6875 25.5469H11.3906C13.6719 25.5469 15.4479 24.8333 16.7188 23.4062C17.9896 21.9792 18.625 20.1094 18.625 17.7969C18.625 15.4948 17.9896 13.6302 16.7188 12.2031C15.4479 10.776 13.6719 10.0625 11.3906 10.0625H6.6875V25.5469ZM36.75 13L38.5 13.1875V17.1562C37.8646 16.8958 37.0156 16.7708 35.9531 16.7812C34.3385 16.7812 33.0885 17.2656 32.2031 18.2344C31.3073 19.2135 30.8594 20.4323 30.8594 21.8906V29H27.2812V13.3125H30.8594V16.3281H31.0781C31.224 15.9948 31.4792 15.6094 31.8438 15.1719C32.1354 14.7865 32.4792 14.4427 32.875 14.1406C33.2917 13.8177 33.849 13.5469 34.5469 13.3281C35.2448 13.1094 35.9792 13 36.75 13ZM40.5781 24.5781C40.5781 22.9531 41.2604 21.7344 42.625 20.9219C43.9896 20.1198 45.7135 19.7188 47.7969 19.7188C48.849 19.7188 49.8385 19.8438 50.7656 20.0938C51.6927 20.3646 52.3385 20.625 52.7031 20.875L53.25 21.2188V18.9531C53.25 18.0885 52.9219 17.3698 52.2656 16.7969C51.599 16.224 50.5469 15.9375 49.1094 15.9375C47.8385 15.9375 46.8438 16.1406 46.125 16.5469C45.4062 16.9427 45.0469 17.5208 45.0469 18.2812H41.3438C41.3542 16.5208 42.0781 15.1979 43.5156 14.3125C44.9427 13.4375 46.8073 13 49.1094 13C51.4635 13 53.3385 13.5052 54.7344 14.5156C56.1302 15.5365 56.8281 17.0156 56.8281 18.9531V24.1719C56.8281 24.8906 56.9167 25.3958 57.0938 25.6875C57.2812 25.9792 57.599 26.125 58.0469 26.125C58.4323 26.125 58.6771 26.0781 58.7812 25.9844L58.8438 25.9531V29.0312C58.4896 29.2188 57.9271 29.3125 57.1562 29.3125C56.3021 29.3125 55.5833 29.1406 55 28.7969C54.4167 28.474 54.0365 28.1354 53.8594 27.7812L53.625 27.2656H53.4375C53.3438 27.4115 53.0677 27.6458 52.6094 27.9688C52.224 28.2292 51.8438 28.4375 51.4688 28.5938C50.4062 29.0729 49.0469 29.3125 47.3906 29.3125C45.401 29.3125 43.7708 28.9167 42.5 28.125C41.2188 27.3438 40.5781 26.1615 40.5781 24.5781ZM48.7656 26.375C49.6823 26.375 50.5156 26.2656 51.2656 26.0469C51.9948 25.849 52.5156 25.6406 52.8281 25.4219L53.25 25.0938V23.5938C52.3854 22.9479 50.8906 22.6146 48.7656 22.5938C45.776 22.5938 44.2812 23.2135 44.2812 24.4531C44.2812 25.7344 45.776 26.375 48.7656 26.375ZM71.0156 13.3125V16.3906H66.4062V29H62.8281V16.3906H60.1406V14.375L62.8281 13.3125V12.5469C62.8281 10.474 63.4115 8.91146 64.5781 7.85938C65.7448 6.80729 67.4219 6.28125 69.6094 6.28125C70.1823 6.28125 70.7708 6.35417 71.375 6.5C71.9583 6.65625 72.3802 6.79688 72.6406 6.92188L73.0312 7.14062V10.4062C72.3958 9.83333 71.4583 9.54688 70.2188 9.54688C67.6771 9.54688 66.4062 10.6667 66.4062 12.9062V13.3125H71.0156ZM75.4531 23.1406V16.3906H72.8594V14.125L76.7031 9.79688H79.0312V13.3125H84.5156V16.3906H79.0312V22.6562C79.0312 24.9062 80.1667 26.0417 82.4375 26.0625C82.9062 26.0625 83.3542 26.0104 83.7812 25.9062C84.2188 25.8021 84.5365 25.6823 84.7344 25.5469L84.9844 25.3906V28.7188C84.1823 29.125 83.1719 29.3229 81.9531 29.3125C77.6198 29.3125 75.4531 27.2552 75.4531 23.1406ZM106.547 12.9375V13.5469H102.438V12.9375C102.438 10.7604 100.797 9.67188 97.5156 9.67188C95.974 9.67188 94.7656 9.92708 93.8906 10.4375C93.026 10.9479 92.5938 11.6979 92.5938 12.6875C92.5938 14.0208 93.5677 14.9219 95.5156 15.3906C96.0469 15.526 97 15.7188 98.375 15.9688C99.7604 16.2188 100.828 16.4427 101.578 16.6406C102.672 16.9323 103.63 17.2812 104.453 17.6875C105.318 18.1146 106.021 18.7448 106.562 19.5781C107.104 20.4115 107.375 21.4271 107.375 22.625C107.375 24.7604 106.484 26.4062 104.703 27.5625C102.932 28.7292 100.578 29.3125 97.6406 29.3125C94.6615 29.3125 92.2917 28.724 90.5312 27.5469C88.7708 26.3802 87.8906 24.6979 87.8906 22.5V21.4531H91.9844V22.5312C91.9844 24.7917 93.8698 25.9219 97.6406 25.9219C101.38 25.9219 103.26 24.8125 103.281 22.5938C103.281 21.9583 103.016 21.4271 102.484 21C101.964 20.5729 101.25 20.2552 100.344 20.0469C99.8958 19.9427 98.974 19.7708 97.5781 19.5312C96.1823 19.2812 95.0938 19.0521 94.3125 18.8438C93.2604 18.5833 92.2969 18.2292 91.4219 17.7812C90.5677 17.3438 89.8646 16.6927 89.3125 15.8281C88.7708 14.974 88.5 13.9271 88.5 12.6875C88.5 10.7292 89.3125 9.17188 90.9375 8.01562C92.5521 6.85938 94.7448 6.28125 97.5156 6.28125C100.318 6.28125 102.521 6.85938 104.125 8.01562C105.74 9.19271 106.547 10.8333 106.547 12.9375ZM112.516 23.1406V16.3906H109.922V14.125L113.766 9.79688H116.094V13.3125H121.578V16.3906H116.094V22.6562C116.094 24.9062 117.229 26.0417 119.5 26.0625C119.969 26.0625 120.417 26.0104 120.844 25.9062C121.281 25.8021 121.599 25.6823 121.797 25.5469L122.047 25.3906V28.7188C121.245 29.125 120.234 29.3229 119.016 29.3125C114.682 29.3125 112.516 27.2552 112.516 23.1406ZM132.812 29.3125C130.219 29.3125 128.099 28.5833 126.453 27.125C124.807 25.6667 123.984 23.6771 123.984 21.1562C123.984 18.6458 124.807 16.6562 126.453 15.1875C128.099 13.7292 130.219 13 132.812 13C135.417 13 137.542 13.7292 139.188 15.1875C140.823 16.6562 141.641 18.6458 141.641 21.1562C141.641 23.6875 140.823 25.6771 139.188 27.125C137.542 28.5833 135.417 29.3125 132.812 29.3125ZM136.531 24.7031C137.469 23.7969 137.938 22.6146 137.938 21.1562C137.938 19.7083 137.469 18.5312 136.531 17.625C135.573 16.7188 134.333 16.2656 132.812 16.2656C131.271 16.2656 130.031 16.7188 129.094 17.625C128.156 18.5312 127.688 19.7083 127.688 21.1562C127.688 22.6146 128.156 23.7969 129.094 24.7031C130.031 25.6094 131.271 26.0625 132.812 26.0625C134.333 26.0625 135.573 25.6094 136.531 24.7031ZM155.281 13L157.031 13.1875V17.1562C156.396 16.8958 155.547 16.7708 154.484 16.7812C152.87 16.7812 151.62 17.2656 150.734 18.2344C149.839 19.2135 149.391 20.4323 149.391 21.8906V29H145.812V13.3125H149.391V16.3281H149.609C149.755 15.9948 150.01 15.6094 150.375 15.1719C150.667 14.7865 151.01 14.4427 151.406 14.1406C151.823 13.8177 152.38 13.5469 153.078 13.3281C153.776 13.1094 154.51 13 155.281 13ZM176.766 21.1562L176.672 22.4375H162.938C163.042 22.9062 163.203 23.3438 163.422 23.75C163.651 24.1875 163.927 24.5677 164.25 24.8906C164.615 25.2552 165.125 25.5677 165.781 25.8281C166.438 26.0885 167.156 26.2188 167.938 26.2188C168.802 26.2188 169.562 26.0729 170.219 25.7812C170.865 25.5 171.307 25.2188 171.547 24.9375L171.906 24.5156H176.125C176 24.849 175.854 25.1615 175.688 25.4531C175.25 26.1927 174.677 26.8438 173.969 27.4062C173 28.1979 171.844 28.7448 170.5 29.0469C169.677 29.224 168.823 29.3125 167.938 29.3125C165.344 29.3125 163.224 28.5833 161.578 27.125C159.932 25.6667 159.109 23.6771 159.109 21.1562C159.109 18.6458 159.932 16.6562 161.578 15.1875C163.224 13.7292 165.344 13 167.938 13C170.542 13 172.667 13.7292 174.312 15.1875C175.948 16.6562 176.766 18.6458 176.766 21.1562ZM170.125 16.4688C169.469 16.2292 168.74 16.1094 167.938 16.1094C167.135 16.1094 166.411 16.2292 165.766 16.4688C165.13 16.6979 164.635 16.9896 164.281 17.3438C163.604 18.0521 163.193 18.6927 163.047 19.2656L162.969 19.625H172.828C172.828 19.375 172.688 18.9688 172.406 18.4062C172.219 18.0208 171.964 17.6615 171.641 17.3281C171.297 16.9948 170.792 16.7083 170.125 16.4688Z" fill="#005D72"/>
<path d="M36.2197 32.25H36.1787L32.8633 38.2588H31.6807L28.3652 32.25H28.3242V41H27.4014V31.1973H28.8438L32.2549 37.4316H32.2754H32.2891L35.7002 31.1973H37.1426V41H36.2197V32.25ZM39.3916 39.127C39.3916 38.4616 39.6924 37.9535 40.2939 37.6025C40.891 37.2562 41.6452 37.083 42.5566 37.083C43.0352 37.083 43.4932 37.1423 43.9307 37.2607C44.3636 37.3838 44.6712 37.5 44.8535 37.6094L45.1475 37.7939V36.5361C45.1475 35.9756 44.9355 35.5472 44.5117 35.251C44.0833 34.9593 43.5524 34.8135 42.9189 34.8135C42.2992 34.8135 41.7614 34.9411 41.3057 35.1963C40.8499 35.4469 40.6221 35.7614 40.6221 36.1396H39.7539C39.7767 35.5745 40.057 35.0778 40.5947 34.6494C41.137 34.2165 41.9027 34 42.8916 34C43.7848 34 44.5277 34.2142 45.1201 34.6426C45.7171 35.0755 46.0156 35.7067 46.0156 36.5361V39.4346C46.0156 39.7627 46.0658 39.9951 46.166 40.1318C46.2708 40.264 46.444 40.3301 46.6855 40.3301C46.8405 40.3301 46.9658 40.3118 47.0615 40.2754L47.1025 40.2412V41C46.9749 41.0638 46.7881 41.0957 46.542 41.0957C46.109 41.0957 45.7992 40.9977 45.6123 40.8018C45.4209 40.6149 45.307 40.4668 45.2705 40.3574L45.2568 40.2754H45.2158C45.1839 40.3301 45.0472 40.4281 44.8057 40.5693C44.637 40.6742 44.4639 40.763 44.2861 40.8359C43.8441 41.0365 43.2858 41.1367 42.6113 41.1367C41.668 41.1367 40.8955 40.9727 40.2939 40.6445C39.6924 40.3164 39.3916 39.8105 39.3916 39.127ZM40.2871 39.127C40.2871 39.929 41.0983 40.3301 42.7207 40.3301C43.1992 40.3301 43.6436 40.2594 44.0537 40.1182C44.4593 39.9769 44.7282 39.8607 44.8604 39.7695C44.9834 39.6784 45.0791 39.6032 45.1475 39.5439V38.5801C45.1156 38.5391 45.0267 38.473 44.8809 38.3818C44.7168 38.2861 44.4388 38.1813 44.0469 38.0674C43.6367 37.9489 43.1947 37.8896 42.7207 37.8896C41.7637 37.8896 41.0732 38.056 40.6494 38.3887C40.4079 38.5801 40.2871 38.8262 40.2871 39.127ZM52.2842 34C53.3141 34 54.1732 34.3327 54.8613 34.998C55.5404 35.668 55.8799 36.5247 55.8799 37.5684C55.8799 38.6165 55.5404 39.4733 54.8613 40.1387C54.1732 40.804 53.3141 41.1367 52.2842 41.1367C51.0902 41.1549 50.1696 40.7311 49.5225 39.8652L49.4951 39.8242H49.4404V43.8027H48.5723V34.1367H49.4404V35.3193H49.4951L49.5225 35.2715C50.1878 34.4102 51.1084 33.9863 52.2842 34ZM52.2158 40.3027C53.0407 40.3027 53.7083 40.0407 54.2188 39.5166C54.7292 38.9925 54.9844 38.3431 54.9844 37.5684C54.9844 36.7936 54.7292 36.1442 54.2188 35.6201C53.7083 35.1006 53.0407 34.8408 52.2158 34.8408C51.4046 34.8408 50.7393 35.0938 50.2197 35.5996C49.7002 36.11 49.4404 36.7663 49.4404 37.5684C49.4404 38.3704 49.7002 39.0267 50.2197 39.5371C50.7301 40.0475 51.3955 40.3027 52.2158 40.3027ZM64.2676 41H63.1055L58.8467 37.5684V41H57.9785V34.1367H58.8467V37.5137L62.8252 34.1367H63.9873L60.0088 37.5273L64.2676 41ZM72.2246 37.5684L72.1836 38.1016H65.8262C65.8262 38.3112 65.9401 38.6074 66.168 38.9902C66.3001 39.2135 66.4596 39.4186 66.6465 39.6055C66.847 39.806 67.1204 39.9723 67.4668 40.1045C67.8132 40.2367 68.1868 40.3027 68.5879 40.3027C68.8796 40.3027 69.1598 40.2686 69.4287 40.2002C69.6976 40.1318 69.9186 40.043 70.0918 39.9336C70.429 39.724 70.6501 39.5371 70.7549 39.373L70.8438 39.2637H71.8896C71.8623 39.332 71.8304 39.3981 71.7939 39.4619C71.7393 39.5622 71.623 39.7148 71.4453 39.9199C71.2539 40.1387 71.0488 40.3278 70.8301 40.4873C70.5977 40.6559 70.2832 40.804 69.8867 40.9316C69.4857 41.0684 69.0527 41.1367 68.5879 41.1367C67.5033 41.1367 66.6169 40.8063 65.9287 40.1455C65.236 39.4801 64.8896 38.6211 64.8896 37.5684C64.8896 36.5156 65.236 35.6566 65.9287 34.9912C66.6169 34.3304 67.4941 34 68.5605 34C69.627 34 70.5042 34.3304 71.1924 34.9912C71.8805 35.652 72.2246 36.5111 72.2246 37.5684ZM65.7988 37.2881H71.3154C71.3154 36.7321 71.0739 36.1852 70.5908 35.6475C70.1077 35.1097 69.431 34.8408 68.5605 34.8408C67.6901 34.8408 67.0133 35.1097 66.5303 35.6475C66.0426 36.1898 65.7988 36.7367 65.7988 37.2881ZM73.0654 34.1367H79.5869V34.9502H76.7568V41H75.8887V34.9502H73.0654V34.1367ZM84.2354 34.1367V36.2285C84.2354 37.3861 84.9486 37.9648 86.375 37.9648H88.3096V34.1367H89.1777V41H88.3096V38.7715H86.375C84.3698 38.7715 83.3672 37.9238 83.3672 36.2285V34.1367H84.2354ZM98.6113 37.5684L98.5703 38.1016H92.2129C92.2129 38.3112 92.3268 38.6074 92.5547 38.9902C92.6868 39.2135 92.8464 39.4186 93.0332 39.6055C93.2337 39.806 93.5072 39.9723 93.8535 40.1045C94.1999 40.2367 94.5736 40.3027 94.9746 40.3027C95.2663 40.3027 95.5465 40.2686 95.8154 40.2002C96.0843 40.1318 96.3053 40.043 96.4785 39.9336C96.8158 39.724 97.0368 39.5371 97.1416 39.373L97.2305 39.2637H98.2764C98.249 39.332 98.2171 39.3981 98.1807 39.4619C98.126 39.5622 98.0098 39.7148 97.832 39.9199C97.6406 40.1387 97.4355 40.3278 97.2168 40.4873C96.9844 40.6559 96.6699 40.804 96.2734 40.9316C95.8724 41.0684 95.4395 41.1367 94.9746 41.1367C93.89 41.1367 93.0036 40.8063 92.3154 40.1455C91.6227 39.4801 91.2764 38.6211 91.2764 37.5684C91.2764 36.5156 91.6227 35.6566 92.3154 34.9912C93.0036 34.3304 93.8809 34 94.9473 34C96.0137 34 96.891 34.3304 97.5791 34.9912C98.2673 35.652 98.6113 36.5111 98.6113 37.5684ZM92.1855 37.2881H97.7021C97.7021 36.7321 97.4606 36.1852 96.9775 35.6475C96.4945 35.1097 95.8177 34.8408 94.9473 34.8408C94.0768 34.8408 93.4001 35.1097 92.917 35.6475C92.4294 36.1898 92.1855 36.7367 92.1855 37.2881ZM104.429 34C105.459 34 106.318 34.3327 107.006 34.998C107.685 35.668 108.024 36.5247 108.024 37.5684C108.024 38.6165 107.685 39.4733 107.006 40.1387C106.318 40.804 105.459 41.1367 104.429 41.1367C103.235 41.1549 102.314 40.7311 101.667 39.8652L101.64 39.8242H101.585V43.8027H100.717V34.1367H101.585V35.3193H101.64L101.667 35.2715C102.332 34.4102 103.253 33.9863 104.429 34ZM104.36 40.3027C105.185 40.3027 105.853 40.0407 106.363 39.5166C106.874 38.9925 107.129 38.3431 107.129 37.5684C107.129 36.7936 106.874 36.1442 106.363 35.6201C105.853 35.1006 105.185 34.8408 104.36 34.8408C103.549 34.8408 102.884 35.0938 102.364 35.5996C101.845 36.11 101.585 36.7663 101.585 37.5684C101.585 38.3704 101.845 39.0267 102.364 39.5371C102.875 40.0475 103.54 40.3027 104.36 40.3027ZM108.858 34.1367H115.38V34.9502H112.55V41H111.682V34.9502H108.858V34.1367ZM123.412 37.5684L123.371 38.1016H117.014C117.014 38.3112 117.128 38.6074 117.355 38.9902C117.488 39.2135 117.647 39.4186 117.834 39.6055C118.035 39.806 118.308 39.9723 118.654 40.1045C119.001 40.2367 119.374 40.3027 119.775 40.3027C120.067 40.3027 120.347 40.2686 120.616 40.2002C120.885 40.1318 121.106 40.043 121.279 39.9336C121.617 39.724 121.838 39.5371 121.942 39.373L122.031 39.2637H123.077C123.05 39.332 123.018 39.3981 122.981 39.4619C122.927 39.5622 122.811 39.7148 122.633 39.9199C122.441 40.1387 122.236 40.3278 122.018 40.4873C121.785 40.6559 121.471 40.804 121.074 40.9316C120.673 41.0684 120.24 41.1367 119.775 41.1367C118.691 41.1367 117.804 40.8063 117.116 40.1455C116.424 39.4801 116.077 38.6211 116.077 37.5684C116.077 36.5156 116.424 35.6566 117.116 34.9912C117.804 34.3304 118.682 34 119.748 34C120.814 34 121.692 34.3304 122.38 34.9912C123.068 35.652 123.412 36.5111 123.412 37.5684ZM116.986 37.2881H122.503C122.503 36.7321 122.261 36.1852 121.778 35.6475C121.295 35.1097 120.618 34.8408 119.748 34.8408C118.878 34.8408 118.201 35.1097 117.718 35.6475C117.23 36.1898 116.986 36.7367 116.986 37.2881ZM135.3 41H134.138L130.104 37.5684V41H129.236V37.5684L125.203 41H124.041L128.115 37.5273L124.321 34.1367H125.483L129.236 37.5137V34.1367H130.104V37.5137L133.857 34.1367H135.02L131.226 37.5273L135.3 41ZM143.25 37.5684L143.209 38.1016H136.852C136.852 38.3112 136.965 38.6074 137.193 38.9902C137.326 39.2135 137.485 39.4186 137.672 39.6055C137.872 39.806 138.146 39.9723 138.492 40.1045C138.839 40.2367 139.212 40.3027 139.613 40.3027C139.905 40.3027 140.185 40.2686 140.454 40.2002C140.723 40.1318 140.944 40.043 141.117 39.9336C141.454 39.724 141.675 39.5371 141.78 39.373L141.869 39.2637H142.915C142.888 39.332 142.856 39.3981 142.819 39.4619C142.765 39.5622 142.648 39.7148 142.471 39.9199C142.279 40.1387 142.074 40.3278 141.855 40.4873C141.623 40.6559 141.309 40.804 140.912 40.9316C140.511 41.0684 140.078 41.1367 139.613 41.1367C138.529 41.1367 137.642 40.8063 136.954 40.1455C136.261 39.4801 135.915 38.6211 135.915 37.5684C135.915 36.5156 136.261 35.6566 136.954 34.9912C137.642 34.3304 138.52 34 139.586 34C140.652 34 141.53 34.3304 142.218 34.9912C142.906 35.652 143.25 36.5111 143.25 37.5684ZM136.824 37.2881H142.341C142.341 36.7321 142.099 36.1852 141.616 35.6475C141.133 35.1097 140.456 34.8408 139.586 34.8408C138.715 34.8408 138.039 35.1097 137.556 35.6475C137.068 36.1898 136.824 36.7367 136.824 37.2881ZM149.936 32.8311C149.607 33.0771 149.159 33.2002 148.589 33.2002C148.019 33.2002 147.573 33.0794 147.249 32.8379C146.921 32.5964 146.757 32.2454 146.757 31.7852V31.7441H147.543V31.7715C147.543 31.9902 147.634 32.168 147.816 32.3047C147.999 32.4368 148.256 32.5029 148.589 32.5029C148.922 32.5029 149.179 32.4368 149.361 32.3047C149.548 32.168 149.642 31.9902 149.642 31.7715V31.7441H150.421V31.7852C150.421 32.2409 150.259 32.5895 149.936 32.8311ZM151.754 41H150.899V35.0664H150.872L146.572 41H145.355V34.1367H146.21V40.0771H146.237L150.537 34.1367H151.754V41Z" fill="#005D72"/>
</svg>
